# Blender v2.79 (sub 0) OBJ File: 'wood_wheel.blend'
# www.blender.org
mtllib wood_wheel.mtl
o wood_wheel_Cylinder
v -0.075344 -0.554576 -0.885405
v -0.075344 0.645424 -0.885405
v 0.631762 -0.554576 -0.592511
v 0.631762 0.645424 -0.592511
v 0.924656 -0.554576 0.114595
v 0.924656 0.645424 0.114595
v 0.631762 -0.554576 0.821702
v 0.631762 0.645424 0.821702
v -0.075345 -0.554576 1.114595
v -0.075345 0.645424 1.114595
v -0.782451 -0.554576 0.821702
v -0.782451 0.645424 0.821702
v -1.075344 -0.554576 0.114595
v -1.075344 0.645424 0.114595
v -0.782451 -0.554576 -0.592511
v -0.782451 0.645424 -0.592511
v -3.846983 0.445424 -1.033455
v -3.846983 -0.354576 -1.033455
v -3.554090 -0.354576 -1.740561
v -3.554090 0.445424 -1.740561
v -3.554090 0.445424 1.969752
v -3.554090 -0.354576 1.969752
v -3.846983 -0.354576 1.262645
v -3.846983 0.445424 1.262645
v -1.223395 -0.354576 -3.657043
v -1.223395 0.445424 -3.657043
v -1.930502 0.445424 -3.364150
v -1.930502 -0.354576 -3.364150
v 1.072706 -0.354576 -3.657043
v 1.779813 -0.354576 -3.364150
v 1.779813 0.445424 -3.364150
v 1.072706 0.445424 -3.657043
v 3.696294 0.445424 1.262646
v 3.696294 -0.354576 1.262646
v 3.403401 -0.354576 1.969753
v 3.403401 0.445424 1.969753
v 1.779813 0.445424 3.593341
v 1.779813 -0.354576 3.593341
v 1.072706 -0.354576 3.886234
v 1.072706 0.445424 3.886234
v -1.223395 0.445424 3.886234
v -1.223395 -0.354576 3.886234
v -1.930502 -0.354576 3.593340
v -1.930502 0.445424 3.593340
v 3.403401 0.445424 -1.740562
v 3.403401 -0.354576 -1.740562
v 3.696294 -0.354576 -1.033455
v 3.696294 0.445424 -1.033455
v 1.617601 -0.354576 4.201727
v 1.617601 0.445424 4.201727
v 4.011787 -0.354576 1.807541
v 4.011787 0.445424 1.807541
v 4.011787 -0.354576 -1.578350
v 4.011787 0.445424 -1.578350
v 1.617601 -0.354576 -3.972537
v 1.617601 0.445424 -3.972537
v -1.768290 0.445424 -3.972536
v -1.768290 -0.354576 -3.972536
v -4.162476 -0.354576 -1.578350
v -4.162476 0.445424 -1.578350
v -4.162477 -0.354576 1.807540
v -4.162477 0.445424 1.807540
v -1.768291 -0.354576 4.201727
v -1.768291 0.445424 4.201727
v 1.617601 0.365424 4.201727
v -1.768291 0.365424 4.201727
v 1.617601 -0.274576 4.201727
v -1.768291 -0.274576 4.201727
v -4.162477 -0.274576 1.807540
v -1.768291 -0.274576 4.201727
v 1.617601 0.365424 4.201727
v 4.011787 0.365424 1.807541
v 1.617601 -0.274576 4.201727
v 4.011787 -0.274576 1.807541
v 4.011787 0.365424 -1.578350
v 4.011787 -0.274576 -1.578350
v 1.617601 0.365424 -3.972536
v 1.617601 -0.274576 -3.972536
v -1.768290 0.365424 -3.972536
v -1.768290 -0.274576 -3.972536
v -4.162476 0.365424 -1.578350
v -1.768291 0.365424 4.201727
v -4.162477 0.365424 1.807540
v -4.162476 -0.274576 -1.578350
v 1.635598 0.365424 4.245472
v -1.786438 0.365424 4.245472
v 1.635598 -0.274576 4.245472
v -1.786438 -0.274576 4.245472
v -4.206182 -0.274576 1.825727
v -4.206182 0.365424 1.825727
v -4.206182 -0.274576 -1.596308
v -4.206182 0.365424 -1.596308
v -1.786438 0.365424 -4.016052
v -1.786438 -0.274576 -4.016052
v 1.635598 0.365424 -4.016052
v 1.635598 -0.274576 -4.016052
v 4.055343 0.365424 -1.596308
v 4.055343 -0.274576 -1.596308
v 4.055342 0.365424 1.825728
v 4.055342 -0.274576 1.825728
v -0.082879 -0.354576 -4.022748
v -0.082879 0.445424 -4.022748
v -0.082879 0.445424 -4.369790
v -0.082879 -0.354576 -4.369790
v -0.082879 0.365424 -4.369790
v -0.082879 -0.274576 -4.369790
v -0.082879 -0.274576 -4.417783
v -0.082879 0.365424 -4.417783
v -3.016525 0.445424 -2.807591
v -3.016525 -0.354576 -2.807591
v -3.261921 0.445424 -3.052987
v -3.261921 -0.354576 -3.052987
v -3.261921 0.365424 -3.052987
v -3.261921 -0.274576 -3.052987
v -3.295858 0.365424 -3.086924
v -3.295858 -0.274576 -3.086924
v -4.231682 0.445424 0.126055
v -4.231682 -0.354576 0.126055
v -4.578724 -0.354576 0.126055
v -4.578724 0.445424 0.126055
v -4.578724 -0.274576 0.126055
v -4.578724 0.365424 0.126055
v -4.626718 0.365424 0.126055
v -4.626718 -0.274576 0.126055
v -3.016526 0.445424 3.059701
v -3.016526 -0.354576 3.059701
v -3.261922 -0.354576 3.305097
v -3.261922 0.445424 3.305097
v -3.261922 -0.274576 3.305097
v -3.261922 0.365424 3.305097
v -3.295859 0.365424 3.339034
v -3.295859 -0.274576 3.339034
v -0.082879 0.445424 4.274858
v -0.082879 -0.354576 4.274858
v -0.082879 0.445424 4.621900
v -0.082879 -0.354576 4.621900
v -0.082879 0.365424 4.621900
v -0.082879 -0.274576 4.621900
v -0.082879 0.365424 4.669894
v -0.082879 -0.274576 4.669894
v 2.850767 0.445424 3.059702
v 2.850767 -0.354576 3.059702
v 3.096163 0.445424 3.305098
v 3.096163 -0.354576 3.305098
v 3.096163 0.365424 3.305098
v 3.096163 -0.274576 3.305098
v 3.130099 -0.274576 3.339034
v 3.130099 0.365424 3.339034
v 4.065924 0.445424 0.126055
v 4.065924 -0.354576 0.126055
v 4.412966 0.445424 0.126055
v 4.412966 -0.354576 0.126055
v 4.412966 0.365424 0.126055
v 4.412966 -0.274576 0.126055
v 4.460959 -0.274576 0.126055
v 4.460959 0.365424 0.126055
v 2.850768 0.445424 -2.807592
v 2.850768 -0.354576 -2.807592
v 3.096164 0.445424 -3.052988
v 3.096164 -0.354576 -3.052988
v 3.096164 0.365424 -3.052987
v 3.096164 -0.274576 -3.052987
v 3.130100 -0.274576 -3.086924
v 3.130100 0.365424 -3.086924
v 0.631762 0.245424 -0.592511
v -0.075344 0.245424 -0.885405
v 0.924656 0.245424 0.114595
v 0.631762 0.245424 0.821702
v -0.075345 0.245424 1.114595
v -0.782451 0.245424 0.821702
v -1.075344 0.245424 0.114595
v -0.782451 0.245424 -0.592511
v -3.554090 0.245424 -1.740561
v -3.846983 0.245424 -1.033455
v -3.846983 0.245424 1.262645
v -3.554090 0.245424 1.969752
v -1.223395 0.245424 -3.657043
v -1.930502 0.245424 -3.364150
v 1.779813 0.245424 -3.364150
v 1.072706 0.245424 -3.657043
v 3.403401 0.245424 1.969753
v 3.696294 0.245424 1.262646
v 1.072706 0.245424 3.886234
v 1.779813 0.245424 3.593341
v -1.930502 0.245424 3.593340
v -1.223395 0.245424 3.886234
v 3.696294 0.245424 -1.033455
v 3.403401 0.245424 -1.740562
v -0.075344 -0.154576 -0.885405
v 0.631762 -0.154576 -0.592511
v 0.924656 -0.154576 0.114595
v 0.631762 -0.154576 0.821702
v -0.075345 -0.154576 1.114595
v -0.782451 -0.154576 0.821702
v -1.075344 -0.154576 0.114595
v -0.782451 -0.154576 -0.592511
v -3.846983 -0.154576 -1.033455
v -3.554090 -0.154576 -1.740561
v -3.554090 -0.154576 1.969752
v -3.846983 -0.154576 1.262645
v -1.930502 -0.154576 -3.364150
v -1.223395 -0.154576 -3.657043
v 1.072706 -0.154576 -3.657043
v 1.779813 -0.154576 -3.364150
v 3.696294 -0.154576 1.262646
v 3.403401 -0.154576 1.969753
v 1.779813 -0.154576 3.593341
v 1.072706 -0.154576 3.886234
v -1.223395 -0.154576 3.886234
v -1.930502 -0.154576 3.593340
v 3.403401 -0.154576 -1.740562
v 3.696294 -0.154576 -1.033455
v 0.266077 -0.554576 -0.026826
v -0.216766 0.645424 -0.226826
v 0.266077 0.645424 -0.026826
v 0.066077 -0.554576 0.456017
v 0.066077 0.645424 0.456017
v -0.416766 -0.554576 0.256017
v -0.416766 0.645424 0.256017
v -0.216766 -0.554576 -0.226826
vn -0.3827 0.0000 -0.9239
vn 0.3827 0.0000 -0.9239
vn -0.3827 0.0000 0.9239
vn 0.0000 1.0000 0.0000
vn 0.0000 -1.0000 0.0000
vn 0.9239 0.0000 0.3827
vn 0.3827 0.0000 0.9239
vn 0.9239 0.0000 -0.3827
vn -0.9528 0.0000 0.3037
vn -0.8880 0.0000 0.4599
vn -0.3017 0.0000 0.9534
vn 0.8931 0.0000 0.4499
vn 0.9472 0.0000 -0.3206
vn 0.8969 0.0000 -0.4423
vn 0.3225 0.0000 -0.9466
vn -0.4460 0.0000 -0.8950
vn -0.2399 0.0000 -0.9708
vn -0.9734 -0.0000 0.2291
vn -0.5243 0.0000 -0.8516
vn -0.8534 -0.0000 -0.5212
vn -0.2275 -0.0000 0.9738
vn -0.5185 0.0000 -0.8551
vn 0.9707 0.0000 -0.2403
vn 0.8496 -0.0000 -0.5275
vn 0.0000 0.0000 1.0000
vn 0.2419 0.0000 -0.9703
vn -0.9409 0.0000 -0.3387
vn -0.8570 0.0000 0.5153
vn -0.8532 0.0000 -0.5216
vn 0.5281 0.0000 -0.8492
vn 0.9714 0.0000 0.2372
vn 0.2294 -0.0000 0.9733
vn -0.5147 0.0000 0.8574
vn -0.9727 0.0000 -0.2321
vn 0.9409 0.0000 0.3387
vn 0.3053 0.0000 0.9522
vn 0.4561 0.0000 0.8899
vn 0.9491 0.0000 0.3149
vn 0.4410 0.0000 -0.8975
vn -0.3188 0.0000 -0.9478
vn -0.8919 0.0000 -0.4522
vn -0.9510 0.0000 -0.3093
vn -0.4611 0.0000 0.8873
vn -0.9239 0.0000 0.3827
vn -0.9239 0.0000 -0.3827
vn -0.9248 0.0000 0.3805
vn -0.3800 0.0000 0.9250
vn 0.9248 0.0000 -0.3805
vn -0.2398 0.0000 -0.9708
vn 0.9237 0.0000 0.3832
vn -0.8569 0.0000 0.5155
vn -0.3842 0.0000 -0.9233
vn 0.9707 0.0000 -0.2402
vn -0.5242 0.0000 -0.8516
vn 0.9230 0.0000 -0.3849
vn 0.2295 0.0000 0.9733
vn -0.9241 0.0000 -0.3822
vn 0.5280 0.0000 -0.8493
vn 0.3812 0.0000 0.9245
vn -0.9734 0.0000 0.2292
vn 0.3853 0.0000 -0.9228
vn -0.2276 0.0000 0.9737
vn 0.9715 0.0000 0.2372
vn -0.5148 0.0000 0.8573
vn 0.2417 0.0000 -0.9703
vn -0.5186 0.0000 -0.8550
vn 0.8496 0.0000 -0.5274
usemtl wood
s off
f 38//1 39//1 208//1 207//1
f 2//2 4//2 165//2 166//2
f 16//1 2//1 166//1 172//1
f 10//3 12//3 170//3 169//3
f 14//4 12//4 219//4
f 11//5 13//5 218//5
f 20//6 17//6 174//6 173//6
f 23//5 22//5 61//5
f 9//7 7//7 192//7 193//7
f 31//3 32//3 180//3 179//3
f 40//1 37//1 184//1 183//1
f 25//5 28//5 58//5
f 6//6 8//6 168//6 167//6
f 8//7 10//7 169//7 168//7
f 167//4 168//4 181//4 182//4
f 33//4 36//4 52//4
f 24//8 21//8 176//8 175//8
f 166//4 165//4 179//4 180//4
f 37//4 40//4 50//4
f 172//4 166//4 177//4 178//4
f 170//4 171//4 175//4 176//4
f 1//1 15//1 196//1 189//1
f 171//4 172//4 173//4 174//4
f 169//4 170//4 185//4 186//4
f 45//4 48//4 54//4
f 168//4 169//4 183//4 184//4
f 165//4 167//4 187//4 188//4
f 29//3 30//3 204//3 203//3
f 150//9 149//9 48//9 47//9
f 157//10 158//10 46//10 45//10
f 102//11 101//11 29//11 32//11
f 109//12 20//12 19//12 110//12
f 118//13 117//13 24//13 23//13
f 126//14 22//14 21//14 125//14
f 133//15 134//15 42//15 41//15
f 141//16 142//16 38//16 37//16
f 39//5 38//5 49//5
f 35//5 34//5 51//5
f 47//5 46//5 53//5
f 32//4 31//4 56//4
f 30//5 29//5 55//5
f 27//4 26//4 57//4
f 19//5 18//5 59//5
f 17//4 20//4 60//4
f 21//4 24//4 62//4
f 43//5 42//5 63//5
f 41//4 44//4 64//4
f 133//5 135//5 64//5 41//5
f 136//4 134//4 42//4 63//4
f 135//17 50//17 65//17 137//17
f 151//18 54//18 75//18 153//18
f 111//19 57//19 79//19 113//19
f 112//20 59//20 84//20 114//20
f 104//21 55//21 78//21 106//21
f 144//22 49//22 73//22 146//22
f 120//23 62//23 83//23 122//23
f 159//24 54//24 75//24 161//24
f 125//4 21//4 62//4 128//4
f 117//4 17//4 60//4 120//4
f 109//4 27//4 57//4 111//4
f 102//4 32//4 56//4 103//4
f 157//4 45//4 54//4 159//4
f 149//4 33//4 52//4 151//4
f 141//4 37//4 50//4 143//4
f 118//5 119//5 59//5 18//5
f 126//5 127//5 61//5 22//5
f 142//5 144//5 49//5 38//5
f 150//5 152//5 51//5 34//5
f 158//5 160//5 53//5 46//5
f 101//5 104//5 55//5 29//5
f 110//5 112//5 58//5 28//5
f 63//25 64//25 66//25 68//25
f 136//26 63//26 68//26 138//26
f 50//27 49//27 67//27 65//27
f 128//28 62//28 83//28 130//28
f 143//29 52//29 72//29 145//29
f 160//30 55//30 78//30 162//30
f 119//31 59//31 84//31 121//31
f 63//25 64//25 82//25 70//25
f 103//32 57//32 79//32 105//32
f 127//33 63//33 70//33 129//33
f 152//34 51//34 74//34 154//34
f 49//35 50//35 71//35 73//35
f 56//21 103//21 105//21 77//21
f 25//5 58//5 104//5 101//5
f 26//4 102//4 103//4 57//4
f 58//32 104//32 106//32 80//32
f 26//36 25//36 101//36 102//36
f 19//5 59//5 112//5 110//5
f 20//4 109//4 111//4 60//4
f 58//19 112//19 114//19 80//19
f 60//20 111//20 113//20 81//20
f 27//37 109//37 110//37 28//37
f 61//23 119//23 121//23 69//23
f 23//5 61//5 119//5 118//5
f 24//4 117//4 120//4 62//4
f 60//31 120//31 122//31 81//31
f 18//38 17//38 117//38 118//38
f 61//28 127//28 129//28 69//28
f 64//33 128//33 130//33 82//33
f 43//5 63//5 127//5 126//5
f 44//4 125//4 128//4 64//4
f 43//39 126//39 125//39 44//39
f 49//17 136//17 138//17 67//17
f 64//26 135//26 137//26 66//26
f 49//4 39//4 134//4 136//4
f 40//5 50//5 135//5 133//5
f 40//40 39//40 134//40 133//40
f 50//22 143//22 145//22 71//22
f 35//5 51//5 144//5 142//5
f 36//4 141//4 143//4 52//4
f 51//29 144//29 146//29 74//29
f 36//41 35//41 142//41 141//41
f 53//18 152//18 154//18 76//18
f 47//5 53//5 152//5 150//5
f 48//4 149//4 151//4 54//4
f 52//34 151//34 153//34 72//34
f 34//42 33//42 149//42 150//42
f 53//24 160//24 162//24 76//24
f 30//5 55//5 160//5 158//5
f 31//4 157//4 159//4 56//4
f 56//30 159//30 161//30 77//30
f 31//43 30//43 158//43 157//43
f 48//44 45//44 188//44 187//44
f 26//7 27//7 178//7 177//7
f 12//44 14//44 171//44 170//44
f 36//45 33//45 182//45 181//45
f 4//8 6//8 167//8 165//8
f 14//45 16//45 172//45 171//45
f 44//2 41//2 186//2 185//2
f 190//5 189//5 203//5 204//5
f 189//5 196//5 201//5 202//5
f 196//5 195//5 197//5 198//5
f 195//5 194//5 199//5 200//5
f 192//5 191//5 205//5 206//5
f 193//5 192//5 207//5 208//5
f 194//5 193//5 209//5 210//5
f 191//5 190//5 211//5 212//5
f 18//6 19//6 198//6 197//6
f 11//3 9//3 193//3 194//3
f 3//2 1//2 189//2 190//2
f 46//44 47//44 212//44 211//44
f 28//7 25//7 202//7 201//7
f 13//44 11//44 194//44 195//44
f 34//45 35//45 206//45 205//45
f 5//8 3//8 190//8 191//8
f 15//45 13//45 195//45 196//45
f 42//2 43//2 210//2 209//2
f 22//8 23//8 200//8 199//8
f 7//6 5//6 191//6 192//6
f 181//3 168//3 192//3 206//3
f 187//7 167//7 191//7 212//7
f 165//6 190//6 204//6 179//6
f 168//8 184//8 207//8 192//8
f 183//44 169//44 193//44 208//44
f 176//7 199//7 194//7 170//7
f 169//6 186//6 209//6 193//6
f 185//45 170//45 194//45 210//45
f 175//1 171//1 195//1 200//1
f 171//3 174//3 197//3 195//3
f 173//2 172//2 196//2 198//2
f 178//44 201//44 196//44 172//44
f 166//8 189//8 202//8 177//8
f 180//45 203//45 189//45 166//45
f 165//1 188//1 211//1 190//1
f 182//2 205//2 191//2 167//2
f 218//6 220//6 214//6 219//6
f 7//5 9//5 216//5
f 10//4 8//4 217//4
f 3//5 5//5 213//5
f 13//5 15//5 220//5 218//5
f 6//4 4//4 215//4
f 16//4 14//4 219//4 214//4
f 9//5 11//5 218//5 216//5
f 12//4 10//4 217//4 219//4
f 5//5 7//5 216//5 213//5
f 15//5 1//5 220//5
f 1//5 3//5 213//5 220//5
f 8//4 6//4 215//4 217//4
f 2//4 16//4 214//4
f 4//4 2//4 214//4 215//4
f 216//2 218//2 219//2 217//2
f 213//45 216//45 217//45 215//45
f 220//3 213//3 215//3 214//3
usemtl metal
f 65//46 67//46 87//46 85//46
f 130//4 83//4 90//4 131//4
f 84//47 81//47 92//47 91//47
f 106//4 78//4 96//4 107//4
f 162//5 78//5 96//5 163//5
f 154//4 74//4 100//4 155//4
f 73//48 71//48 85//48 87//48
f 139//49 85//49 87//49 140//49
f 138//4 68//4 88//4 140//4
f 68//50 66//50 86//50 88//50
f 137//5 65//5 85//5 139//5
f 131//51 90//51 89//51 132//51
f 129//5 70//5 88//5 132//5
f 83//52 69//52 89//52 90//52
f 70//50 82//50 86//50 88//50
f 124//53 123//53 90//53 89//53
f 122//5 83//5 90//5 123//5
f 121//4 84//4 91//4 124//4
f 115//54 93//54 94//54 116//54
f 113//4 79//4 93//4 115//4
f 79//55 80//55 94//55 93//55
f 114//5 84//5 91//5 116//5
f 107//56 108//56 93//56 94//56
f 78//57 77//57 95//57 96//57
f 105//5 79//5 93//5 108//5
f 163//58 96//58 95//58 164//58
f 161//4 75//4 97//4 164//4
f 75//59 76//59 98//59 97//59
f 155//60 156//60 97//60 98//60
f 74//61 72//61 99//61 100//61
f 153//5 75//5 97//5 156//5
f 147//29 148//29 99//29 100//29
f 146//4 73//4 87//4 147//4
f 145//5 72//5 99//5 148//5
f 77//5 105//5 108//5 95//5
f 96//62 95//62 108//62 107//62
f 80//4 106//4 107//4 94//4
f 80//5 114//5 116//5 94//5
f 81//4 113//4 115//4 92//4
f 92//20 115//20 116//20 91//20
f 69//4 121//4 124//4 89//4
f 81//5 122//5 123//5 92//5
f 91//63 92//63 123//63 124//63
f 69//5 129//5 132//5 89//5
f 86//64 131//64 132//64 88//64
f 82//4 130//4 131//4 86//4
f 66//5 137//5 139//5 86//5
f 67//4 138//4 140//4 87//4
f 86//65 139//65 140//65 88//65
f 71//5 145//5 148//5 85//5
f 74//4 146//4 147//4 100//4
f 87//66 85//66 148//66 147//66
f 72//5 153//5 156//5 99//5
f 100//34 99//34 156//34 155//34
f 76//4 154//4 155//4 98//4
f 77//4 161//4 164//4 95//4
f 98//67 163//67 164//67 97//67
f 76//5 162//5 163//5 98//5
